<svg width="48" height="47" viewBox="0 0 48 47" fill="none" xmlns="http://www.w3.org/2000/svg">
<path d="M4.032 0.576H19.968L23.808 45.44H13.568L13.056 35.264H10.752L10.24 45.44H4.47035e-07L4.032 0.576ZM11.136 26.368H12.608L12.224 18.304H11.584L11.136 26.368ZM47.5595 16.256H37.3195V11.008C37.3195 9.664 36.8075 8.896 35.9115 8.896C34.9515 8.896 34.4395 9.664 34.4395 11.008V14.336C34.4395 16.576 34.8235 17.216 39.7515 19.84L41.6715 20.736C46.2795 23.104 47.6235 26.048 47.6235 33.344V34.24C47.6235 41.792 43.2715 46.08 35.7195 46.08C28.2315 46.08 24.1355 41.92 24.1355 34.24V29.824H34.3755V35.008C34.3755 36.416 34.9515 37.184 35.9115 37.184C36.8715 37.184 37.3835 36.416 37.3835 35.072V31.616C37.3835 29.312 36.9995 28.736 32.4555 26.368L30.2155 25.28C25.6075 22.912 24.1995 19.648 24.1995 12.416V11.776C24.1995 4.096 28.2955 0 35.7195 0C43.2075 0 47.5595 4.288 47.5595 11.776V16.256Z" fill="black" fill-opacity="0.75"/>
</svg>
