<svg width="43" height="43" viewBox="0 0 43 43" fill="none" xmlns="http://www.w3.org/2000/svg">
<path d="M30.8182 1.5H11.2727C5.8754 1.5 1.5 5.8754 1.5 11.2727V30.8182C1.5 36.2155 5.8754 40.5909 11.2727 40.5909H30.8182C36.2155 40.5909 40.5909 36.2155 40.5909 30.8182V11.2727C40.5909 5.8754 36.2155 1.5 30.8182 1.5Z" stroke="black" stroke-width="3" stroke-linecap="round" stroke-linejoin="round"/>
<path d="M28.8636 19.8139C29.489 24.0944 26.5572 28.0621 22.2768 28.6876C17.9963 29.313 14.0286 26.3812 13.4031 22.1008C12.7777 17.8203 15.7095 13.8526 19.99 13.2271C20.7522 13.1098 21.5145 13.1098 22.2768 13.2271C25.6777 13.7353 28.3554 16.413 28.8636 19.8139Z" stroke="black" stroke-width="3" stroke-linecap="round" stroke-linejoin="round"/>
<path d="M31.7954 10.2954H31.8142" stroke="black" stroke-width="3" stroke-linecap="round" stroke-linejoin="round"/>
</svg>
