<svg width="38" height="38" viewBox="0 0 38 38" fill="none" xmlns="http://www.w3.org/2000/svg">
<path d="M21.9336 26.6664C22.6764 27.0118 23.54 26.7873 24.0236 26.1482L24.6282 25.3364C25.2845 24.4727 26.3036 23.9545 27.3918 23.9545H32.5736C34.4736 23.9545 36.0282 25.5091 36.0282 27.4091V32.5909C36.0282 34.4909 34.4736 36.0455 32.5736 36.0455C15.4218 36.0455 1.5 22.1236 1.5 4.95455C1.5 3.05455 3.05455 1.5 4.95455 1.5H10.1364C12.0364 1.5 13.5909 3.05455 13.5909 4.95455V10.1364C13.5909 11.2245 13.0727 12.2436 12.2091 12.9L11.3973 13.5045C10.7409 14.0055 10.5336 14.8864 10.8964 15.6291C13.2627 20.4309 17.1318 24.3 21.9336 26.6491" stroke="black" stroke-width="3" stroke-linecap="round" stroke-linejoin="round"/>
</svg>
